<svg xmlns="http://www.w3.org/2000/svg" enable-background="new 0 0 60 60" viewBox="0 0 60 60" id="messages"><path fill="#2B79C2" d="M51.3200073,6.0299988H20.8099976c-2.039978,0-3.6900024,1.6500244-3.6900024,3.6799927v13.3200073
		h5.789978c-0.0199585-0.0799561-0.0499878-0.1499634-0.0499878-0.2399902c0-0.5499878,0.4500122-1,1-1h24.4000244
		c0.5599976,0,1,0.4500122,1,1s-0.4400024,1-1,1H35.1199951c1.1400146,0.7000122,1.9899902,1.8300171,2.3200073,3.1699829h7.25
		c0.5499878,0,1,0.4500122,1,1c0,0.5500488-0.4500122,1-1,1h-7.0900269v6.4300537l9.3800049,6.2699585
		c0.1700439,0.1099854,0.3600464,0.1699829,0.5599976,0.1699829c0.1600342,0,0.3200073-0.039978,0.4700317-0.1199951
		c0.3200073-0.1799927,0.5299683-0.5099487,0.5299683-0.8800049v-6.4399414h2.7800293
		C53.3499756,34.3900452,55,32.730011,55,30.7000427V9.7099915C55,7.6800232,53.3499756,6.0299988,51.3200073,6.0299988z
		 M27.4299927,11.4500427h17.2600098c0.5499878,0,1,0.4499512,1,1c0,0.5499878-0.4500122,1-1,1H27.4299927
		c-0.5499878,0-1-0.4500122-1-1C26.4299927,11.8999939,26.8800049,11.4500427,27.4299927,11.4500427z M48.2600098,18.6200256
		H23.8599854c-0.5499878,0-1-0.4500122-1-1s0.4500122-1,1-1h24.4000244c0.5599976,0,1,0.4500122,1,1
		S48.8200073,18.6200256,48.2600098,18.6200256z"></path><path fill="#3B4652" d="M32.460022,25.0299988H8.1400146C6.4099731,25.0299988,5,26.440033,5,28.1700134v16.7299805
		c0,1.7300415,1.4099731,3.1400146,3.1400146,3.1400146h2.0100098v4.9299927c0,0.3699951,0.1999512,0.710022,0.5299683,0.8800049
		c0.1500244,0.0800171,0.3099976,0.1199951,0.4700317,0.1199951c0.1999512,0,0.3899536-0.0499878,0.5599976-0.1699829
		l8.6199951-5.7600098H32.460022c1.7299805,0,3.1399536-1.4099731,3.1399536-3.1400146V28.1700134
		C35.5999756,26.440033,34.1900024,25.0299988,32.460022,25.0299988z M14.7978516,38.702179
		c-0.5839844,0.5839844-1.3579102,0.8984375-2.1640625,0.8984375c-0.2485352,0-0.5-0.0302734-0.75-0.0908203
		c-1.0844727-0.2646484-1.9560547-1.1367188-2.2211914-2.2207031c-0.2587891-1.0615234,0.0429688-2.1513672,0.8071289-2.9150391
		c0.7646484-0.7646484,1.855957-1.0625,2.9150391-0.8066406c1.0839844,0.2646484,1.9555664,1.1367188,2.2202148,2.2207031
		C15.8632813,36.8496399,15.5615234,37.9385071,14.7978516,38.702179z M22.4882813,38.679718
		c-0.5834961,0.5966797-1.3706055,0.9199219-2.1918945,0.9199219c-0.2275391,0-0.4580078-0.0244141-0.6870117-0.0751953
		c-1.0893555-0.2402344-1.9765625-1.0947266-2.2602539-2.1777344c-0.28125-1.0742188,0.0087891-2.1806641,0.7758789-2.9589844
		c0.7626953-0.7753906,1.8588867-1.0810547,2.9291992-0.8193359c1.0800781,0.2636719,1.949707,1.1328125,2.2138672,2.2128906
		C23.5258789,36.8330383,23.2338867,37.9160461,22.4882813,38.679718z M30.1435547,38.6904602
		c-0.5830078,0.5917969-1.3603516,0.9101563-2.171875,0.9101563c-0.2504883,0-0.5043945-0.0302734-0.7568359-0.0917969
		c-1.0805664-0.265625-1.9492188-1.1337891-2.2138672-2.2119141c-0.2573242-1.0527344,0.0336914-2.1357422,0.7792969-2.8984375
		c0.7446289-0.7626953,1.8212891-1.0810547,2.8789063-0.8466797c1.0898438,0.2402344,1.9770508,1.0947266,2.2607422,2.1787109
		C31.2006836,36.804718,30.9106445,37.9111633,30.1435547,38.6904602z"></path></svg>